<svg width="64" height="64" viewBox="0 0 64 64" fill="none" xmlns="http://www.w3.org/2000/svg">
<path d="M48 0H16C7.16344 0 0 7.16344 0 16V48C0 56.8366 7.16344 64 16 64H48C56.8366 64 64 56.8366 64 48V16C64 7.16344 56.8366 0 48 0Z" fill="url(#paint0_linear_12296_75843)"/>
<path d="M12.4701 36.3533H8.66635C8.52822 36.3533 8.44322 36.4383 8.42197 36.5771L8.32635 37.1827C8.32181 37.2189 8.32504 37.2556 8.33582 37.2904C8.3466 37.3252 8.36467 37.3573 8.38885 37.3846C8.44025 37.4366 8.50755 37.4701 8.5801 37.4796H12.1288C12.3222 37.4934 12.5105 37.5479 12.6813 37.6396C12.8451 37.7405 12.9926 37.8657 13.1188 38.0108C13.2465 38.1552 13.3408 38.3259 13.3951 38.5108C13.4449 38.7089 13.4522 38.9153 13.4163 39.1164L13.1401 40.9758C13.0733 41.279 12.9133 41.5537 12.6826 41.7614C12.4488 41.9639 12.1726 42.0596 11.822 42.0596H5.2876L5.3501 41.7089C5.43446 41.3175 5.65049 40.9669 5.96214 40.7155C6.27379 40.4642 6.66221 40.3273 7.0626 40.3277H10.7707C10.8325 40.3254 10.8915 40.3019 10.938 40.2611C10.9844 40.2204 11.0154 40.1649 11.0257 40.1039L11.1638 39.3927C11.168 39.3148 11.1413 39.2385 11.0895 39.1802C11.0665 39.1486 11.036 39.1233 11.0007 39.1066C10.9655 39.0899 10.9266 39.0823 10.8876 39.0846H7.4551C7.24516 39.0869 7.03763 39.0396 6.84947 38.9464C6.66628 38.8613 6.5033 38.7382 6.37135 38.5852C6.25086 38.4322 6.15743 38.2597 6.0951 38.0752C6.03005 37.8764 6.01208 37.6652 6.0426 37.4583L6.31822 35.7264C6.36203 35.4115 6.52103 35.1241 6.76447 34.9196C7.00724 34.7294 7.30608 34.6248 7.61447 34.6221H14.1251L14.0826 34.9196C14.0384 35.3155 13.8492 35.6811 13.5515 35.9459C13.2537 36.2106 12.8685 36.3558 12.4701 36.3533V36.3533Z" fill="white"/>
<path d="M23.8752 40.5936L24.5627 35.6205C24.5928 35.3397 24.7297 35.0812 24.9452 34.8986C25.1672 34.7144 25.4487 34.6173 25.737 34.6255H31.1252C31.3141 34.6259 31.5013 34.6617 31.677 34.7311C31.8505 34.813 32.0059 34.9288 32.1339 35.0717C32.2515 35.2073 32.3387 35.3665 32.3895 35.5386C32.452 35.7156 32.4734 35.9046 32.452 36.0911L31.7395 41.063C31.7049 41.3424 31.5691 41.5995 31.3577 41.7855C31.1478 41.9728 30.8738 42.0722 30.5927 42.063H25.1839C24.9926 42.0645 24.8035 42.0217 24.6314 41.938C24.4634 41.8566 24.3094 41.749 24.1752 41.6192C24.0689 41.4699 23.9627 41.3217 23.9202 41.1517C23.8515 40.9739 23.8359 40.7801 23.8752 40.5936V40.5936ZM26.6477 36.7186L26.1164 40.3436H29.2514C29.3535 40.3434 29.4517 40.3047 29.5265 40.2351C29.6012 40.1656 29.647 40.0704 29.6545 39.9686L30.1645 36.3436H27.052C26.9507 36.3442 26.8533 36.3827 26.7789 36.4515C26.7045 36.5203 26.6586 36.6145 26.6502 36.7155L26.6477 36.7186Z" fill="white"/>
<path d="M33.4998 34.625H40.833C41.0243 34.6239 41.2133 34.6666 41.3855 34.75C41.55 34.8281 41.6984 34.9365 41.823 35.0694C41.9285 35.2205 42.0142 35.3846 42.078 35.5575C42.1344 35.736 42.149 35.925 42.1205 36.11L41.6742 38.99C41.6298 39.2692 41.486 39.523 41.2693 39.7046C41.0526 39.8862 40.7775 39.9833 40.4948 39.9781H40.0061L41.0361 42.1031H38.7923L37.7623 39.9781H35.0211L34.8823 40.9025C34.8264 41.2373 34.6539 41.5414 34.3952 41.7611C34.1366 41.9809 33.8086 42.102 33.4692 42.1031H32.4492L33.4998 34.625ZM35.2955 38.2375H39.5348L39.8223 36.3775H35.5836L35.2955 38.2375Z" fill="white"/>
<path d="M49.6287 36.3531H47.9812L47.3231 40.8587C47.2743 41.1932 47.1067 41.4989 46.851 41.72C46.5953 41.941 46.2686 42.0626 45.9306 42.0625H44.6874L45.5268 36.375H42.9243L43.1874 34.625H51.0731C50.9568 35.3444 50.6062 36.3531 49.6287 36.3531Z" fill="white"/>
<path d="M57.9673 36.3531H54.1636C54.0254 36.3531 53.9404 36.4381 53.9192 36.5769L53.8236 37.1825C53.819 37.2187 53.8222 37.2554 53.833 37.2902C53.8438 37.325 53.8619 37.3571 53.8861 37.3844C53.9375 37.4364 54.0048 37.4699 54.0773 37.4794H57.6248C57.8182 37.4932 58.0065 37.5477 58.1773 37.6394C58.3411 37.7403 58.4886 37.8655 58.6148 38.0106C58.7425 38.155 58.8368 38.3257 58.8911 38.5106C58.9406 38.7088 58.9478 38.9151 58.9123 39.1162L58.6361 40.9756C58.5695 41.2788 58.4097 41.5535 58.1792 41.7612C57.9454 41.9637 57.6692 42.0594 57.3186 42.0594H50.7842L50.8467 41.7088C50.9317 41.3171 51.1483 40.9664 51.4605 40.7151C51.7727 40.4637 52.1615 40.327 52.5623 40.3275H56.2704C56.3321 40.3251 56.3912 40.3015 56.4376 40.2608C56.484 40.2201 56.515 40.1646 56.5254 40.1037L56.6629 39.3925C56.667 39.3148 56.6405 39.2385 56.5892 39.18C56.5661 39.1484 56.5355 39.1231 56.5001 39.1064C56.4647 39.0897 56.4257 39.0821 56.3867 39.0844H52.9554C52.7455 39.0867 52.538 39.0394 52.3498 38.9463C52.1665 38.8609 52.0034 38.7378 51.8711 38.585C51.7508 38.4318 51.6574 38.2594 51.5948 38.075C51.5299 37.8762 51.5117 37.6651 51.5417 37.4581L51.8186 35.7262C51.8621 35.4113 52.0212 35.1237 52.2648 34.9194C52.507 34.7311 52.8043 34.6276 53.1111 34.625H59.6248L59.5823 34.9225C59.5373 35.3183 59.3473 35.6834 59.0492 35.9475C58.751 36.2117 58.3656 36.3561 57.9673 36.3531V36.3531Z" fill="white"/>
<path d="M14.9962 34.625L14.76 36.4162H21.1568C21.1568 36.4162 21.3581 36.3719 21.285 36.8587C21.2118 37.3456 21.0487 38.2612 21.0487 38.2612H16.3243C16.3243 38.2612 14.6118 38.1 14.3156 39.9588C14.0193 41.8175 14.0068 42.0556 14.0068 42.0556H15.3056C15.3056 42.0556 16.3968 41.9231 16.5306 40.9306L16.6637 39.9412H22.23C22.23 39.9412 22.98 39.8669 23.1743 38.9825C23.3687 38.0981 23.6625 35.8519 23.6625 35.8519C23.6625 35.8519 23.7362 34.625 22.6875 34.625H14.9962Z" fill="white"/>
<path d="M9.41562 32.6406H7.04063L4.375 24.8594H6.61625L8.26188 30.1719H8.29125L9.93 24.8594H12.055L9.41562 32.6406Z" fill="white"/>
<path d="M15.1394 23.6547H13V21.8984H15.1381L15.1394 23.6547ZM13 24.8597H15.1381V32.6409H13V24.8597Z" fill="white"/>
<path d="M16.8218 24.8589H18.8499V25.9464H18.8943C19.1488 25.5305 19.5138 25.1934 19.9487 24.9727C20.1554 24.8682 20.3735 24.7881 20.5987 24.7339C20.8201 24.6806 21.0471 24.6536 21.2749 24.6533C21.8432 24.6533 22.3109 24.7304 22.678 24.8846C23.0208 25.0204 23.3213 25.2449 23.5487 25.5352C23.7707 25.8343 23.9228 26.1795 23.9937 26.5452C24.0803 26.9772 24.1222 27.4171 24.1187 27.8577V32.6408H21.9799V28.2496C21.9799 27.6125 21.8757 27.1348 21.6674 26.8164C21.4591 26.4981 21.1076 26.3389 20.613 26.3389C20.3574 26.3331 20.1029 26.3755 19.863 26.4639C19.656 26.544 19.4762 26.6818 19.3449 26.8608C19.1989 27.0668 19.0974 27.301 19.0468 27.5483C18.9786 27.8818 18.9472 28.2217 18.953 28.5621V32.6402H16.8218V24.8589Z" fill="white"/>
<path d="M25.6464 27.2546C25.676 26.7546 25.8022 26.3369 26.0252 26.0015C26.2412 25.6727 26.5304 25.3985 26.8702 25.2002C27.226 24.9966 27.6135 24.854 28.0164 24.7783C28.4411 24.6947 28.873 24.6528 29.3058 24.6533C29.5658 24.6533 29.8304 24.6644 30.0995 24.6864C30.3632 24.7078 30.6248 24.7496 30.882 24.8114C31.1273 24.8706 31.3661 24.9544 31.5945 25.0614C31.8109 25.1618 32.0085 25.2983 32.1789 25.4652C32.3486 25.6344 32.4834 25.8353 32.5758 26.0565C32.6785 26.3134 32.7285 26.5885 32.7227 26.8652V30.9058C32.7227 31.0821 32.7277 31.2577 32.7377 31.4315C32.7477 31.6052 32.7633 31.7683 32.7852 31.9202C32.8046 32.0602 32.8328 32.1988 32.8695 32.3352C32.8965 32.4423 32.9386 32.545 32.9945 32.6402H30.827C30.7877 32.5182 30.7545 32.3943 30.7277 32.2689C30.701 32.1453 30.6827 32.02 30.6727 31.8939C30.5051 32.0668 30.3161 32.2174 30.1102 32.3421C29.9071 32.464 29.6915 32.5638 29.467 32.6396C29.2399 32.7159 29.0062 32.7711 28.7689 32.8046C28.5329 32.8388 28.2948 32.8561 28.0564 32.8565C27.7062 32.8586 27.3574 32.8117 27.0202 32.7171C26.7134 32.6325 26.4271 32.4862 26.1789 32.2871C25.9381 32.0894 25.7457 31.8393 25.6164 31.5558C25.4729 31.2298 25.4027 30.8763 25.4108 30.5202C25.4108 30.0789 25.4868 29.7162 25.6389 29.4321C25.7812 29.1587 25.9864 28.923 26.2377 28.7446C26.4944 28.5664 26.7804 28.4346 27.0827 28.3552C27.4025 28.2687 27.7278 28.2037 28.0564 28.1608C28.3847 28.1121 28.7006 28.0717 29.0039 28.0396C29.2767 28.0126 29.5471 27.965 29.8127 27.8971C30.0171 27.8509 30.2091 27.7607 30.3752 27.6327C30.5152 27.5177 30.5852 27.3498 30.5852 27.129C30.5928 26.9405 30.555 26.7529 30.4752 26.5821C30.4079 26.4495 30.3045 26.3386 30.177 26.2621C30.0409 26.1853 29.8914 26.1354 29.7364 26.1152C29.5598 26.0904 29.3816 26.0783 29.2033 26.0789C28.797 26.0789 28.4677 26.1696 28.2152 26.3508C27.9627 26.5321 27.8195 26.8333 27.7858 27.2546H25.6464ZM30.5839 28.834C30.4861 28.9181 30.3724 28.9818 30.2495 29.0215C30.1057 29.0704 29.9584 29.1084 29.8089 29.1352C29.6489 29.1652 29.4839 29.1896 29.3127 29.209C29.1414 29.2283 28.972 29.2527 28.8052 29.2821C28.6437 29.3152 28.4845 29.3582 28.3283 29.4108C28.1843 29.4581 28.048 29.5263 27.9239 29.6133C27.8062 29.6967 27.7103 29.8074 27.6445 29.9358C27.5715 30.0895 27.5362 30.2583 27.5414 30.4283C27.5344 30.5989 27.5712 30.7685 27.6483 30.9208C27.7163 31.0453 27.8165 31.1493 27.9383 31.2221C28.0677 31.2981 28.2098 31.3504 28.3577 31.3765C28.5226 31.4065 28.69 31.4211 28.8577 31.4202C29.0977 31.4258 29.3371 31.3925 29.5664 31.3214C29.7418 31.2651 29.9051 31.1767 30.0483 31.0608C30.169 30.9605 30.2697 30.8384 30.3452 30.7008C30.4137 30.575 30.468 30.4419 30.507 30.3039C30.5423 30.1804 30.5645 30.0534 30.5733 29.9252C30.5808 29.8052 30.5845 29.7058 30.5845 29.6277L30.5839 28.834Z" fill="white"/>
<defs>
<linearGradient id="paint0_linear_12296_75843" x1="4.13937" y1="-15.2081" x2="54.5762" y2="70.2538" gradientUnits="userSpaceOnUse">
<stop stop-color="#00DDFF"/>
<stop offset="1" stop-color="#1800A9"/>
</linearGradient>
</defs>
</svg>
