<svg width="64" height="64" viewBox="0 0 64 64" fill="none" xmlns="http://www.w3.org/2000/svg">
<path fill-rule="evenodd" clip-rule="evenodd" d="M10 29.3333C10 18.6558 18.6558 10 29.3333 10C40.0108 10 48.6667 18.6558 48.6667 29.3333C48.6667 34.5618 46.5912 39.3056 43.2191 42.7856C43.1376 42.8454 43.0596 42.9121 42.9859 42.9859C42.9121 43.0596 42.8454 43.1376 42.7856 43.2191C39.3056 46.5912 34.5618 48.6667 29.3333 48.6667C18.6558 48.6667 10 40.0108 10 29.3333ZM44.3579 47.1864C40.2986 50.6061 35.0566 52.6667 29.3333 52.6667C16.4467 52.6667 6 42.22 6 29.3333C6 16.4467 16.4467 6 29.3333 6C42.22 6 52.6667 16.4467 52.6667 29.3333C52.6667 35.0566 50.6061 40.2986 47.1864 44.3579L57.4143 54.5858C58.1953 55.3669 58.1953 56.6332 57.4143 57.4143C56.6332 58.1953 55.3669 58.1953 54.5858 57.4143L44.3579 47.1864Z" fill="white" fill-opacity="0.87"/>
</svg>
